<svg width="32" height="32" viewBox="0 0 160 160" fill="none" xmlns="http://www.w3.org/2000/svg"><rect width="160" height="160" fill="#752873"/>
<path d="M140.34 132.28C134.9 96.7304 126.07 59.5003 123.27 52.1403C117.86 37.9103 107.27 31.0804 98.1903 31.6804C94.1903 31.9404 90.6604 34.0503 87.2604 36.1103C70.9304 46.0003 54.3904 56.0404 41.1504 69.8004C37.2504 73.8004 33.4004 78.2404 31.6104 83.5704C27.9704 94.4404 26.5402 136.84 28.0002 160H144.5L140.34 132.28Z" fill="#FE5F50"/>
<g clip-path="url(#clip0_425_11950)">
<rect x="82" y="77" width="16" height="31" rx="8" transform="rotate(90 82 77)" fill="white"/>
<rect x="60" y="85" width="9.19232" height="9.19232" rx="1" transform="rotate(-45 60 85)" fill="black"/>
</g>
<g clip-path="url(#clip1_425_11950)">
<rect x="119" y="77" width="16" height="31" rx="8" transform="rotate(90 119 77)" fill="white"/>
<rect x="97" y="85" width="9.19232" height="9.19232" rx="1" transform="rotate(-45 97 85)" fill="black"/>
</g>
<ellipse cx="85" cy="108.5" rx="7" ry="9.5" fill="black"/>
<defs>
<clipPath id="clip0_425_11950">
<rect x="82" y="77" width="16" height="31" rx="8" transform="rotate(90 82 77)" fill="white"/>
</clipPath>
<clipPath id="clip1_425_11950">
<rect x="119" y="77" width="16" height="31" rx="8" transform="rotate(90 119 77)" fill="white"/>
</clipPath>
</defs>
<path fill-rule="evenodd" clip-rule="evenodd" d="M41.8155 69.1156C41.5943 69.3416 41.374 69.5686 41.1546 69.7966C40.4457 70.5237 39.7384 71.2654 39.0448 72.0242C38.3423 71.2288 37.6998 70.3911 37.1107 69.5417C35.1635 66.7343 33.6192 63.5117 32.3876 60.9417C31.9776 60.0862 31.6023 59.3029 31.2582 58.6314C30.7546 57.6484 31.1433 56.4431 32.1264 55.9395C33.1095 55.4359 34.3147 55.8246 34.8183 56.8077C35.2465 57.6435 35.6759 58.5392 36.122 59.4695C37.3256 61.98 38.6502 64.7427 40.3975 67.262C40.8526 67.9183 41.3244 68.5387 41.8155 69.1156Z" fill="white"/>
<path d="M94.0001 48.2002L92.2353 49.1411C92.7392 50.0863 93.8983 50.4667 94.8643 50.0039C95.8303 49.541 96.2601 48.3993 95.8392 47.4143L94.0001 48.2002ZM41.0789 37.6902L39.6903 36.2509C39.6859 36.2551 39.6815 36.2594 39.6772 36.2636L41.0789 37.6902ZM45.4989 48.2002L44.9727 50.1297C45.8476 50.3683 46.7735 49.9884 47.2287 49.2041C47.6839 48.4197 47.5544 47.4272 46.9131 46.786L45.4989 48.2002ZM30.4989 50.0103L32.4291 50.5341C32.4336 50.5176 32.4378 50.501 32.4419 50.4844L30.4989 50.0103ZM31.2889 58.6885C31.8236 59.655 33.0406 60.005 34.0071 59.4702C34.9736 58.9355 35.3236 57.7185 34.7889 56.752L31.2889 58.6885ZM115 39.5L116.93 40.0252C116.94 39.9859 116.95 39.9463 116.958 39.9065L115 39.5ZM122.5 72.0001L122.136 73.9667L122.5 72.0001ZM122.194 57.9858C121.358 58.7073 121.265 59.9702 121.986 60.8066C122.708 61.6429 123.97 61.736 124.807 61.0144L122.194 57.9858ZM39.6772 36.2636C37.5766 38.3276 38.1204 41.0848 39.126 43.1636C40.1638 45.309 42.0294 47.5591 44.0847 49.6144L46.9131 46.786C44.9684 44.8413 43.474 42.9665 42.7268 41.4218C41.9474 39.8106 42.2812 39.3128 42.4807 39.1168L39.6772 36.2636ZM46.0251 46.2707C40.3696 44.7283 36.3683 44.573 33.5892 45.2539C30.7589 45.9474 29.0329 47.5815 28.5559 49.5361L32.4419 50.4844C32.4749 50.349 32.7489 49.5781 34.5411 49.139C36.3845 48.6874 39.6282 48.6722 44.9727 50.1297L46.0251 46.2707ZM28.5687 49.4865C28.0346 51.4548 28.5111 53.2715 29.1538 54.7544C29.7603 56.1536 30.7147 57.6508 31.2889 58.6885L34.7889 56.752C34.013 55.3497 33.3324 54.3368 32.8239 53.1636C32.3517 52.074 32.2332 51.2558 32.4291 50.5341L28.5687 49.4865ZM95.8392 47.4143C90.0459 33.8578 78.0763 28.9229 66.7425 28.4147C61.0852 28.1611 55.5197 28.9975 50.8073 30.4293C46.14 31.8474 42.1179 33.9087 39.6903 36.2509L42.4676 39.1295C44.2592 37.401 47.6115 35.5809 51.9701 34.2566C56.2836 32.946 61.3955 32.179 66.5634 32.4107C76.8799 32.8733 87.1516 37.264 92.161 48.9861L95.8392 47.4143ZM95.765 47.2593C91.2725 38.8329 90.8617 32.8968 92.144 29.1178C93.3973 25.4245 96.4107 23.3675 99.9012 22.8809C103.442 22.3873 107.339 23.5462 110.028 26.2185C112.649 28.8248 114.296 33.0508 113.042 39.0936L116.958 39.9065C118.454 32.6992 116.538 27.0503 112.848 23.3816C109.223 19.7789 104.058 18.2628 99.349 18.9192C94.5895 19.5827 90.1654 22.5007 88.3562 27.8324C86.576 33.0784 87.4777 40.2174 92.2353 49.1411L95.765 47.2593ZM113.07 38.9749C110.375 48.8799 109.733 56.9435 111.18 62.8824C111.91 65.8799 113.189 68.401 115.066 70.3151C116.955 72.2405 119.351 73.451 122.136 73.9667L122.865 70.0335C120.807 69.6524 119.179 68.7958 117.922 67.5142C116.654 66.2211 115.665 64.3951 115.066 61.9356C113.854 56.9605 114.305 49.6709 116.93 40.0252L113.07 38.9749ZM122.136 73.9667C127.06 74.8785 130.796 73.8951 133.195 71.5487C135.546 69.2504 136.232 66.0097 135.858 63.1793C135.489 60.3905 134.023 57.5397 131.466 56.1587C128.699 54.6641 125.371 55.2445 122.194 57.9858L124.807 61.0144C127.129 59.0108 128.676 59.1979 129.565 59.6781C130.665 60.272 131.636 61.7644 131.892 63.7035C132.143 65.601 131.642 67.4729 130.399 68.6887C129.205 69.8563 126.941 70.7884 122.865 70.0335L122.136 73.9667Z" fill="white"/>
</svg>